<svg width="512" height="512" viewBox="0 0 512 512" fill="none" xmlns="http://www.w3.org/2000/svg">
<rect width="512" height="512" fill="white" fill-opacity="0.02"/>
<path d="M256 431C352.65 431 431 352.65 431 256C431 159.35 352.65 81 256 81C159.35 81 81 159.35 81 256C81 352.65 159.35 431 256 431Z" fill="url(#paint0_linear_3311_54)"/>
<path d="M214.87 304.981L195.994 246.89C195.267 244.653 195.267 242.243 195.994 240.006C196.721 237.769 198.137 235.82 200.04 234.437L249.456 198.535C251.359 197.152 253.651 196.407 256.003 196.407C258.355 196.407 260.647 197.152 262.55 198.535L311.966 234.437C313.868 235.82 315.285 237.769 316.012 240.006C316.738 242.243 316.739 244.653 316.012 246.89L297.137 304.981C296.41 307.218 294.993 309.168 293.091 310.55C291.188 311.933 288.896 312.677 286.544 312.677H225.463C223.111 312.677 220.819 311.933 218.916 310.55C217.013 309.168 215.596 307.218 214.87 304.981Z" fill="url(#paint1_linear_3311_54)"/>
<path d="M214.87 304.981L195.994 246.89C195.267 244.653 195.267 242.243 195.994 240.006C196.721 237.769 198.137 235.82 200.04 234.437L249.456 198.535C251.359 197.152 253.651 196.407 256.003 196.407C258.355 196.407 260.647 197.152 262.55 198.535L311.966 234.437C313.868 235.82 315.285 237.769 316.012 240.006C316.738 242.243 316.739 244.653 316.012 246.89L297.137 304.981C296.41 307.218 294.993 309.168 293.091 310.55C291.188 311.933 288.896 312.677 286.544 312.677H225.463C223.111 312.677 220.819 311.933 218.916 310.55C217.013 309.168 215.596 307.218 214.87 304.981Z" fill="url(#paint2_linear_3311_54)"/>
<path d="M308.506 134.792L260.234 154.602C257.525 155.72 254.484 155.72 251.775 154.602L203.493 134.792C197.928 132.499 195.183 126.204 197.299 120.565L209.871 87.1476C224.57 83.1357 240.035 81 256 81C271.965 81 287.43 83.1357 302.128 87.147L314.7 120.564C316.826 126.204 314.081 132.499 308.506 134.792Z" fill="url(#paint3_linear_3311_54)"/>
<path d="M81 256C81 352.65 159.35 431 256 431C352.65 431 431 352.65 431 256C431 250.746 430.755 245.55 430.301 240.415H81.6986C81.2368 245.597 81.0037 250.797 81 256Z" fill="url(#paint4_linear_3311_54)"/>
<path d="M390.141 368.39C369.425 393.099 342.016 411.994 310.697 422.283H310.689L288.161 408.99C282.763 405.81 281.052 398.803 284.371 393.497L315.986 342.931C316.811 341.611 317.904 340.478 319.193 339.606C320.483 338.733 321.941 338.14 323.473 337.865L373.308 328.954C379.576 327.835 385.51 332.189 386.315 338.503L390.141 368.39Z" fill="url(#paint5_linear_3311_54)"/>
<path d="M431 256C431 256.712 431 257.423 430.981 258.136V258.145L406.262 278.389C401.557 282.253 394.624 281.615 390.695 276.956L355.373 235.108C353.515 232.906 352.581 230.07 352.767 227.195L356.381 171.897C356.779 165.833 361.974 161.201 368.047 161.506L404.451 163.309C421.275 190.191 431 221.954 431 256Z" fill="url(#paint6_linear_3311_54)"/>
<path d="M431 256C431 256.712 431 257.423 430.981 258.136V258.145L406.262 278.389C401.557 282.253 394.624 281.615 390.695 276.956L355.373 235.108C353.515 232.906 352.581 230.07 352.767 227.195L356.381 171.897C356.779 165.833 361.974 161.201 368.047 161.506L404.451 163.309C421.275 190.191 431 221.954 431 256Z" fill="url(#paint7_linear_3311_54)"/>
<path d="M223.849 408.99L201.321 422.283H201.312C169.993 411.994 142.584 393.1 121.859 368.39L125.686 338.504C126.499 332.19 132.425 327.837 138.692 328.955L188.536 337.866C190.068 338.14 191.525 338.732 192.813 339.605C194.102 340.478 195.192 341.611 196.015 342.932L227.629 393.497C230.958 398.803 229.238 405.81 223.849 408.99Z" fill="url(#paint8_linear_3311_54)"/>
<path d="M390.141 368.39C369.425 393.099 342.016 411.994 310.697 422.283H310.689L288.161 408.99C282.763 405.81 281.052 398.803 284.371 393.497L315.986 342.931C316.811 341.611 317.904 340.478 319.193 339.606C320.483 338.733 321.941 338.14 323.473 337.865L373.308 328.954C379.576 327.835 385.51 332.189 386.315 338.503L390.141 368.39Z" fill="url(#paint9_linear_3311_54)"/>
<path d="M390.141 368.39C369.425 393.099 342.016 411.994 310.697 422.283H310.689L288.161 408.99C282.763 405.81 281.052 398.803 284.371 393.497L315.986 342.931C316.811 341.611 317.904 340.478 319.193 339.606C320.483 338.733 321.941 338.14 323.473 337.865L373.308 328.954C379.576 327.835 385.51 332.189 386.315 338.503L390.141 368.39Z" fill="url(#paint10_linear_3311_54)"/>
<path d="M223.849 408.99L201.321 422.283H201.312C169.993 411.994 142.584 393.1 121.859 368.39L125.686 338.504C126.499 332.19 132.425 327.837 138.692 328.955L188.536 337.866C190.068 338.14 191.525 338.732 192.813 339.605C194.102 340.478 195.192 341.611 196.015 342.932L227.629 393.497C230.958 398.803 229.238 405.81 223.849 408.99Z" fill="url(#paint11_linear_3311_54)"/>
<path d="M156.635 235.108L121.313 276.957C117.384 281.616 110.451 282.253 105.737 278.39L81.0185 258.136C81 257.423 81 256.712 81 256C81 221.954 90.7245 190.191 107.549 163.31L143.953 161.507C150.035 161.202 155.221 165.833 155.619 171.898L159.233 227.196C159.426 230.07 158.494 232.908 156.635 235.108Z" fill="url(#paint12_linear_3311_54)"/>
<path d="M256.003 185.583V167.123C256.003 163.934 255.054 160.816 253.278 158.166C251.501 155.517 248.977 153.456 246.026 152.244L202.16 134.239C199.529 133.159 196.658 132.796 193.842 133.187C191.025 133.578 188.362 134.709 186.124 136.465L161.58 155.724C159.522 157.338 157.89 159.43 156.823 161.817C155.757 164.205 155.288 166.816 155.459 169.426L158.74 219.631C158.967 223.106 160.316 226.413 162.583 229.056C164.851 231.698 167.915 233.534 171.315 234.286L186.423 237.628C188.646 238.12 190.948 238.134 193.176 237.67C195.405 237.206 197.51 236.274 199.351 234.936L249.373 198.594C251.426 197.102 253.098 195.146 254.25 192.884C255.402 190.623 256.003 188.121 256.003 185.583Z" fill="url(#paint13_linear_3311_54)"/>
<path d="M169.022 233.779L184.514 237.206C187.248 237.811 189.777 239.12 191.851 241.003C193.925 242.885 195.471 245.277 196.336 247.94L214.466 303.737C215.347 306.45 215.491 309.348 214.883 312.135C214.275 314.921 212.938 317.496 211.007 319.596L199.376 332.24C197.545 334.231 195.24 335.728 192.676 336.593C190.112 337.457 187.371 337.66 184.707 337.184L136.792 328.613C133.893 328.095 131.192 326.79 128.984 324.842C126.775 322.894 125.144 320.376 124.268 317.564L116.855 293.766C116.051 291.185 115.91 288.444 116.446 285.795C116.982 283.146 118.176 280.674 119.92 278.609L153.257 239.109C155.149 236.868 157.617 235.186 160.396 234.247C163.175 233.307 166.158 233.146 169.022 233.779Z" fill="url(#paint14_linear_3311_54)"/>
<path d="M206.387 96.4192L195.081 126.472C194.044 129.227 192.269 131.645 189.951 133.46L186.123 136.465L161.58 155.72L158.927 157.8C156.313 159.862 153.12 161.054 149.794 161.211L107.548 163.3C130.105 127.248 165.436 99.9968 207.191 87.8964C207.69 90.5955 207.477 93.5163 206.387 96.4192Z" fill="url(#paint15_linear_3311_54)"/>
<path d="M126.731 330.369L121.859 368.39C96.7795 338.494 81.5175 300.085 81.0186 258.136L110.498 282.291C112.935 284.283 114.732 286.948 115.666 289.954L124.272 317.566L126.129 323.547C126.813 325.752 127.018 328.078 126.731 330.369Z" fill="url(#paint16_linear_3311_54)"/>
<path d="M256.002 185.583V167.123C256.002 163.934 256.951 160.816 258.727 158.166C260.504 155.517 263.028 153.456 265.979 152.244L309.845 134.239C312.476 133.159 315.347 132.796 318.164 133.187C320.981 133.578 323.644 134.709 325.881 136.465L350.426 155.724C352.483 157.338 354.115 159.43 355.182 161.817C356.248 164.205 356.717 166.816 356.546 169.426L353.265 219.631C353.038 223.106 351.69 226.413 349.422 229.056C347.154 231.698 344.09 233.534 340.69 234.286L325.582 237.628C323.359 238.12 321.057 238.134 318.829 237.67C316.6 237.206 314.495 236.274 312.654 234.936L262.633 198.594C260.579 197.102 258.908 195.146 257.755 192.884C256.603 190.623 256.002 188.121 256.002 185.583Z" fill="url(#paint17_linear_3311_54)"/>
<path d="M342.984 233.779L327.492 237.206C324.757 237.811 322.228 239.12 320.155 241.003C318.081 242.885 316.535 245.277 315.67 247.94L297.541 303.737C296.659 306.45 296.515 309.348 297.123 312.135C297.731 314.921 299.069 317.496 301 319.596L312.63 332.24C314.462 334.231 316.766 335.728 319.331 336.592C321.895 337.457 324.635 337.66 327.299 337.183L375.214 328.613C378.113 328.095 380.814 326.79 383.023 324.842C385.231 322.893 386.862 320.376 387.738 317.564L395.151 293.766C395.955 291.185 396.095 288.444 395.56 285.795C395.024 283.145 393.829 280.674 392.086 278.609L358.749 239.109C356.857 236.868 354.388 235.186 351.609 234.247C348.831 233.307 345.848 233.145 342.984 233.779Z" fill="url(#paint18_linear_3311_54)"/>
<path d="M404.451 163.3L362.205 161.211C358.88 161.051 355.688 159.859 353.071 157.8L350.548 155.822L325.339 136.049L322.048 133.46C319.736 131.642 317.965 129.225 316.927 126.472L305.612 96.4192C304.522 93.517 304.309 90.5955 304.808 87.8964C346.574 99.9968 381.895 127.248 404.451 163.3Z" fill="url(#paint19_linear_3311_54)"/>
<path d="M430.982 258.145C430.483 300.094 415.221 338.494 390.141 368.39L385.279 330.369C384.982 328.078 385.187 325.75 385.88 323.546L387.737 317.566L396.344 289.953C397.278 286.95 399.071 284.286 401.502 282.29L430.982 258.145Z" fill="url(#paint20_linear_3311_54)"/>
<path d="M212.592 317.872L201.697 329.716C199.312 332.309 197.845 335.612 197.52 339.12C197.194 342.627 198.03 346.144 199.897 349.131L228.968 395.629C230.413 397.941 232.424 399.848 234.809 401.17C237.195 402.492 239.878 403.186 242.605 403.186H269.402C272.13 403.186 274.812 402.492 277.198 401.17C279.584 399.848 281.594 397.941 283.04 395.629L312.11 349.131C313.977 346.144 314.812 342.627 314.487 339.12C314.162 335.612 312.694 332.309 310.31 329.716L299.415 317.872C297.909 316.235 296.079 314.927 294.041 314.033C292.004 313.139 289.803 312.677 287.577 312.677H224.429C222.204 312.677 220.003 313.139 217.965 314.033C215.928 314.927 214.098 316.235 212.592 317.872Z" fill="url(#paint21_linear_3311_54)"/>
<path d="M310.688 422.283C293.485 427.94 275.098 431 256 431C236.902 431 218.525 427.94 201.321 422.283L229.913 405.412C232.391 403.956 235.212 403.187 238.085 403.185H273.925C276.8 403.185 279.619 403.961 282.096 405.412L310.688 422.283Z" fill="url(#paint22_linear_3311_54)"/>
<defs>
<linearGradient id="paint0_linear_3311_54" x1="132.256" y1="132.256" x2="379.744" y2="379.744" gradientUnits="userSpaceOnUse">
<stop stop-color="#EAF6FF"/>
<stop offset="1" stop-color="#B3DAFE"/>
</linearGradient>
<linearGradient id="paint1_linear_3311_54" x1="229.119" y1="236.172" x2="269.063" y2="276.116" gradientUnits="userSpaceOnUse">
<stop stop-color="#5A5A5A"/>
<stop offset="1" stop-color="#444444"/>
</linearGradient>
<linearGradient id="paint2_linear_3311_54" x1="256.003" y1="270.412" x2="256.003" y2="310.908" gradientUnits="userSpaceOnUse">
<stop stop-color="#433F43" stop-opacity="0"/>
<stop offset="1" stop-color="#1A1A1A"/>
</linearGradient>
<linearGradient id="paint3_linear_3311_54" x1="232.684" y1="91.4506" x2="268.548" y2="127.315" gradientUnits="userSpaceOnUse">
<stop stop-color="#5A5A5A"/>
<stop offset="1" stop-color="#444444"/>
</linearGradient>
<linearGradient id="paint4_linear_3311_54" x1="256" y1="282.765" x2="256" y2="420.458" gradientUnits="userSpaceOnUse">
<stop stop-color="#7BACDF" stop-opacity="0"/>
<stop offset="0.161" stop-color="#78A7D7" stop-opacity="0.161"/>
<stop offset="0.406" stop-color="#729AC2" stop-opacity="0.406"/>
<stop offset="0.703" stop-color="#6686A0" stop-opacity="0.703"/>
<stop offset="1" stop-color="#596C76"/>
</linearGradient>
<linearGradient id="paint5_linear_3311_54" x1="317.621" y1="352.739" x2="348.115" y2="383.232" gradientUnits="userSpaceOnUse">
<stop stop-color="#5A5A5A"/>
<stop offset="1" stop-color="#444444"/>
</linearGradient>
<linearGradient id="paint6_linear_3311_54" x1="367.417" y1="190.006" x2="408.802" y2="231.39" gradientUnits="userSpaceOnUse">
<stop stop-color="#5A5A5A"/>
<stop offset="1" stop-color="#444444"/>
</linearGradient>
<linearGradient id="paint7_linear_3311_54" x1="378.485" y1="205.192" x2="421.034" y2="238.82" gradientUnits="userSpaceOnUse">
<stop stop-color="#433F43" stop-opacity="0"/>
<stop offset="1" stop-color="#1A1A1A"/>
</linearGradient>
<linearGradient id="paint8_linear_3311_54" x1="169.169" y1="366.165" x2="204.993" y2="401.989" gradientUnits="userSpaceOnUse">
<stop stop-color="#5A5A5A"/>
<stop offset="1" stop-color="#444444"/>
</linearGradient>
<linearGradient id="paint9_linear_3311_54" x1="317.621" y1="352.739" x2="348.115" y2="383.232" gradientUnits="userSpaceOnUse">
<stop stop-color="#5A5A5A"/>
<stop offset="1" stop-color="#444444"/>
</linearGradient>
<linearGradient id="paint10_linear_3311_54" x1="336.409" y1="327.373" x2="336.409" y2="391.817" gradientUnits="userSpaceOnUse">
<stop stop-color="#433F43" stop-opacity="0"/>
<stop offset="1" stop-color="#1A1A1A"/>
</linearGradient>
<linearGradient id="paint11_linear_3311_54" x1="175.594" y1="327.373" x2="175.594" y2="391.817" gradientUnits="userSpaceOnUse">
<stop stop-color="#433F43" stop-opacity="0"/>
<stop offset="1" stop-color="#1A1A1A"/>
</linearGradient>
<linearGradient id="paint12_linear_3311_54" x1="102.958" y1="197.702" x2="146.965" y2="241.708" gradientUnits="userSpaceOnUse">
<stop stop-color="#5A5A5A"/>
<stop offset="1" stop-color="#444444"/>
</linearGradient>
<linearGradient id="paint13_linear_3311_54" x1="199.428" y1="184.926" x2="250.508" y2="236.006" gradientUnits="userSpaceOnUse">
<stop stop-color="#7BACDF" stop-opacity="0"/>
<stop offset="0.161" stop-color="#78A7D7" stop-opacity="0.161"/>
<stop offset="0.406" stop-color="#729AC2" stop-opacity="0.406"/>
<stop offset="0.703" stop-color="#6686A0" stop-opacity="0.703"/>
<stop offset="1" stop-color="#596C76"/>
</linearGradient>
<linearGradient id="paint14_linear_3311_54" x1="178.273" y1="300.786" x2="214.961" y2="337.475" gradientUnits="userSpaceOnUse">
<stop stop-color="#7BACDF" stop-opacity="0"/>
<stop offset="0.161" stop-color="#78A7D7" stop-opacity="0.161"/>
<stop offset="0.406" stop-color="#729AC2" stop-opacity="0.406"/>
<stop offset="0.703" stop-color="#6686A0" stop-opacity="0.703"/>
<stop offset="1" stop-color="#596C76"/>
</linearGradient>
<linearGradient id="paint15_linear_3311_54" x1="156.935" y1="125.163" x2="190.99" y2="159.218" gradientUnits="userSpaceOnUse">
<stop stop-color="#7BACDF" stop-opacity="0"/>
<stop offset="0.161" stop-color="#78A7D7" stop-opacity="0.161"/>
<stop offset="0.406" stop-color="#729AC2" stop-opacity="0.406"/>
<stop offset="0.703" stop-color="#6686A0" stop-opacity="0.703"/>
<stop offset="1" stop-color="#596C76"/>
</linearGradient>
<linearGradient id="paint16_linear_3311_54" x1="102.808" y1="313.213" x2="140.553" y2="311.84" gradientUnits="userSpaceOnUse">
<stop stop-color="#7BACDF" stop-opacity="0"/>
<stop offset="0.161" stop-color="#78A7D7" stop-opacity="0.161"/>
<stop offset="0.406" stop-color="#729AC2" stop-opacity="0.406"/>
<stop offset="0.703" stop-color="#6686A0" stop-opacity="0.703"/>
<stop offset="1" stop-color="#596C76"/>
</linearGradient>
<linearGradient id="paint17_linear_3311_54" x1="312.513" y1="204.63" x2="324.866" y2="259.532" gradientUnits="userSpaceOnUse">
<stop stop-color="#7BACDF" stop-opacity="0"/>
<stop offset="0.161" stop-color="#78A7D7" stop-opacity="0.161"/>
<stop offset="0.406" stop-color="#729AC2" stop-opacity="0.406"/>
<stop offset="0.703" stop-color="#6686A0" stop-opacity="0.703"/>
<stop offset="1" stop-color="#596C76"/>
</linearGradient>
<linearGradient id="paint18_linear_3311_54" x1="346.184" y1="298.255" x2="359.909" y2="359.333" gradientUnits="userSpaceOnUse">
<stop stop-color="#7BACDF" stop-opacity="0"/>
<stop offset="0.161" stop-color="#78A7D7" stop-opacity="0.161"/>
<stop offset="0.406" stop-color="#729AC2" stop-opacity="0.406"/>
<stop offset="0.703" stop-color="#6686A0" stop-opacity="0.703"/>
<stop offset="1" stop-color="#596C76"/>
</linearGradient>
<linearGradient id="paint19_linear_3311_54" x1="354.419" y1="118.285" x2="355.105" y2="190.343" gradientUnits="userSpaceOnUse">
<stop stop-color="#7BACDF" stop-opacity="0"/>
<stop offset="0.161" stop-color="#78A7D7" stop-opacity="0.161"/>
<stop offset="0.406" stop-color="#729AC2" stop-opacity="0.406"/>
<stop offset="0.703" stop-color="#6686A0" stop-opacity="0.703"/>
<stop offset="1" stop-color="#596C76"/>
</linearGradient>
<linearGradient id="paint20_linear_3311_54" x1="401.312" y1="288.682" x2="427.39" y2="357.996" gradientUnits="userSpaceOnUse">
<stop stop-color="#7BACDF" stop-opacity="0"/>
<stop offset="0.161" stop-color="#78A7D7" stop-opacity="0.161"/>
<stop offset="0.406" stop-color="#729AC2" stop-opacity="0.406"/>
<stop offset="0.703" stop-color="#6686A0" stop-opacity="0.703"/>
<stop offset="1" stop-color="#596C76"/>
</linearGradient>
<linearGradient id="paint21_linear_3311_54" x1="254.661" y1="338.26" x2="295.151" y2="408.947" gradientUnits="userSpaceOnUse">
<stop stop-color="#7BACDF" stop-opacity="0"/>
<stop offset="0.161" stop-color="#78A7D7" stop-opacity="0.161"/>
<stop offset="0.406" stop-color="#729AC2" stop-opacity="0.406"/>
<stop offset="0.703" stop-color="#6686A0" stop-opacity="0.703"/>
<stop offset="1" stop-color="#596C76"/>
</linearGradient>
<linearGradient id="paint22_linear_3311_54" x1="249.304" y1="409.36" x2="268.52" y2="446.418" gradientUnits="userSpaceOnUse">
<stop stop-color="#7BACDF" stop-opacity="0"/>
<stop offset="0.161" stop-color="#78A7D7" stop-opacity="0.161"/>
<stop offset="0.406" stop-color="#729AC2" stop-opacity="0.406"/>
<stop offset="0.703" stop-color="#6686A0" stop-opacity="0.703"/>
<stop offset="1" stop-color="#596C76"/>
</linearGradient>
</defs>
</svg>
